<?xml version="1.0" encoding="UTF-8" standalone="no"?>
<svg width="360px" height="351px" viewBox="0 0 360 351" version="1.1" xmlns="http://www.w3.org/2000/svg" xmlns:xlink="http://www.w3.org/1999/xlink">
    <!-- Generator: Sketch 50.2 (55047) - http://www.bohemiancoding.com/sketch -->
    <title>Shape</title>
    <desc>Created with Sketch.</desc>
    <defs></defs>
    <g id="Page-1" stroke="none" stroke-width="1" fill="none" fill-rule="evenodd">
        <g id="waves" transform="translate(-120.000000, -125.000000)" fill="#AE1212" fill-rule="nonzero">
            <path d="M377.283951,475.16835 C340.082305,475.16835 308.312757,460.802469 281.975309,432.070707 C265.514403,414.113356 245.761317,405.13468 222.716049,405.13468 C199.670782,405.13468 180.082305,414.113356 163.950617,432.070707 C159.012346,437.457912 152.921811,440.151515 145.679012,440.151515 C138.436214,440.151515 132.345679,437.457912 127.407407,432.070707 C122.469136,426.683502 120,420.039282 120,412.138047 C120,404.236813 122.469136,397.592593 127.407407,392.205387 C153.744856,363.473625 185.514403,349.107744 222.716049,349.107744 C259.917695,349.107744 291.687243,363.473625 318.024691,392.205387 C334.485597,410.162738 354.238683,419.141414 377.283951,419.141414 C400.329218,419.141414 419.917695,410.162738 436.049383,392.205387 C440.987654,386.818182 447.078189,384.124579 454.320988,384.124579 C461.563786,384.124579 467.654321,386.818182 472.592593,392.205387 C477.530864,397.592593 480,404.236813 480,412.138047 C480,420.039282 477.530864,426.683502 472.592593,432.070707 C446.255144,460.802469 414.485597,475.16835 377.283951,475.16835 Z M377.283951,362.575758 C340.082305,362.575758 308.312757,348.209877 281.975309,319.478114 C265.514403,301.520763 245.761317,292.542088 222.716049,292.542088 C199.670782,292.542088 180.082305,301.520763 163.950617,319.478114 C159.012346,324.86532 152.921811,327.558923 145.679012,327.558923 C138.436214,327.558923 132.345679,324.86532 127.407407,319.478114 C122.469136,314.090909 120,307.446689 120,299.545455 C120,291.64422 122.469136,285 127.407407,279.612795 C153.744856,250.881033 185.514403,236.515152 222.716049,236.515152 C259.917695,236.515152 291.687243,250.881033 318.024691,279.612795 C334.485597,297.570146 354.238683,306.548822 377.283951,306.548822 C400.329218,306.548822 419.917695,297.570146 436.049383,279.612795 C440.987654,274.225589 447.078189,271.531987 454.320988,271.531987 C461.563786,271.531987 467.654321,274.225589 472.592593,279.612795 C477.530864,285 480,291.64422 480,299.545455 C480,307.446689 477.530864,314.090909 472.592593,319.478114 C446.255144,348.209877 414.485597,362.575758 377.283951,362.575758 Z M377.283951,249.983165 C340.082305,249.983165 308.312757,235.617284 281.975309,206.885522 C265.514403,188.928171 245.761317,179.949495 222.716049,179.949495 C199.670782,179.949495 180.082305,188.928171 163.950617,206.885522 C159.012346,212.272727 152.921811,214.96633 145.679012,214.96633 C138.436214,214.96633 132.345679,212.272727 127.407407,206.885522 C122.469136,201.498316 120,195.03367 120,187.491582 C120,179.949495 122.469136,173.484848 127.407407,168.097643 C153.744856,139.365881 185.514403,125 222.716049,125 C259.917695,125 291.687243,139.365881 318.024691,168.097643 C334.485597,186.054994 354.238683,195.03367 377.283951,195.03367 C400.329218,195.03367 419.917695,186.054994 436.049383,168.097643 C440.987654,162.710438 447.078189,160.016835 454.320988,160.016835 C461.563786,160.016835 467.654321,162.710438 472.592593,168.097643 C477.530864,173.484848 480,179.949495 480,187.491582 C480,195.03367 477.530864,201.498316 472.592593,206.885522 C446.255144,235.617284 414.485597,249.983165 377.283951,249.983165 Z" id="Shape"></path>
        </g>
    </g>
</svg>